<mxfile host="drawio-plugin" modified="2022-09-09T18:29:20.775Z" agent="5.0 (X11; Linux x86_64) AppleWebKit/537.36 (KHTML, like Gecko) Chrome/98.0.4758.102 Safari/537.36" etag="adG11x5NxL_tJY3enuSj" version="15.5.4" type="embed"><diagram id="xk0LYboaFIT9QmwzVqD-" name="Page-1"><mxGraphModel dx="1756" dy="892" grid="0" gridSize="10" guides="1" tooltips="1" connect="1" arrows="1" fold="1" page="0" pageScale="1" pageWidth="827" pageHeight="1169" background="#282A36" math="0" shadow="0"><root><mxCell id="0"/><mxCell id="1" parent="0"/><mxCell id="69" value="" style="rounded=0;whiteSpace=wrap;html=1;strokeColor=none;strokeWidth=3;fillColor=#FF79C6;fontSize=13;fontColor=#F8F8F2;align=right;" parent="1" vertex="1"><mxGeometry x="-473" y="-136.5" width="20" height="20" as="geometry"/></mxCell><mxCell id="70" value="Model" style="text;html=1;resizable=0;points=[];autosize=1;align=left;verticalAlign=middle;spacingTop=-4;fontSize=13;fontColor=#F8F8F2;" parent="1" vertex="1"><mxGeometry x="-451" y="-134.5" width="45" height="16" as="geometry"/></mxCell><mxCell id="71" value="" style="rounded=0;whiteSpace=wrap;html=1;strokeColor=none;strokeWidth=3;fillColor=#BD93F9;fontSize=13;fontColor=#F8F8F2;align=right;" parent="1" vertex="1"><mxGeometry x="-473" y="-107.5" width="20" height="20" as="geometry"/></mxCell><mxCell id="72" value="Abstraction" style="text;html=1;resizable=0;points=[];autosize=1;align=left;verticalAlign=middle;spacingTop=-4;fontSize=13;fontColor=#F8F8F2;" parent="1" vertex="1"><mxGeometry x="-451" y="-105.5" width="75" height="16" as="geometry"/></mxCell><mxCell id="73" value="" style="rounded=0;whiteSpace=wrap;html=1;strokeColor=none;strokeWidth=3;fillColor=#8BE9FD;fontSize=13;fontColor=#F8F8F2;align=right;" parent="1" vertex="1"><mxGeometry x="-473" y="-76.5" width="20" height="20" as="geometry"/></mxCell><mxCell id="74" value="Implementation" style="text;html=1;resizable=0;points=[];autosize=1;align=left;verticalAlign=middle;spacingTop=-4;fontSize=13;fontColor=#F8F8F2;" parent="1" vertex="1"><mxGeometry x="-451" y="-74.5" width="99" height="16" as="geometry"/></mxCell><mxCell id="75" value="" style="rounded=0;whiteSpace=wrap;html=1;strokeColor=none;strokeWidth=3;fillColor=#50FA7B;fontSize=13;fontColor=#F8F8F2;align=right;" parent="1" vertex="1"><mxGeometry x="-473" y="-165.5" width="20" height="20" as="geometry"/></mxCell><mxCell id="76" value="Layer" style="text;html=1;resizable=0;points=[];autosize=1;align=left;verticalAlign=middle;spacingTop=-4;fontSize=13;fontColor=#F8F8F2;" parent="1" vertex="1"><mxGeometry x="-451" y="-163.5" width="43" height="16" as="geometry"/></mxCell><mxCell id="113" value="" style="rounded=0;whiteSpace=wrap;html=1;strokeColor=none;strokeWidth=3;fillColor=#FF5555;fontSize=13;fontColor=#F8F8F2;align=right;" parent="1" vertex="1"><mxGeometry x="-473" y="-45.5" width="20" height="20" as="geometry"/></mxCell><mxCell id="114" value="Externals" style="text;html=1;resizable=0;points=[];autosize=1;align=left;verticalAlign=middle;spacingTop=-4;fontSize=13;fontColor=#F8F8F2;" parent="1" vertex="1"><mxGeometry x="-451" y="-43.5" width="64" height="16" as="geometry"/></mxCell><mxCell id="153" style="edgeStyle=orthogonalEdgeStyle;rounded=0;orthogonalLoop=1;jettySize=auto;html=1;exitX=0;exitY=0.5;exitDx=0;exitDy=0;entryX=1;entryY=0.5;entryDx=0;entryDy=0;fontSize=13;fontColor=#F8F8F2;strokeWidth=2;strokeColor=#BD93F9;" parent="1" edge="1"><mxGeometry relative="1" as="geometry"><mxPoint x="-102" y="213" as="targetPoint"/></mxGeometry></mxCell><mxCell id="154" style="edgeStyle=orthogonalEdgeStyle;rounded=0;orthogonalLoop=1;jettySize=auto;html=1;exitX=1;exitY=0.5;exitDx=0;exitDy=0;entryX=0;entryY=0.5;entryDx=0;entryDy=0;strokeColor=#BD93F9;strokeWidth=2;fontSize=13;fontColor=#F8F8F2;" parent="1" edge="1"><mxGeometry relative="1" as="geometry"><mxPoint x="94" y="213" as="sourcePoint"/></mxGeometry></mxCell><mxCell id="190" value="" style="rounded=0;whiteSpace=wrap;html=1;strokeColor=#50FA7B;strokeWidth=3;fillColor=#2E303D;fontColor=#F8F8F2;" parent="1" vertex="1"><mxGeometry x="-255" y="66" width="680" height="425" as="geometry"/></mxCell><mxCell id="191" value="Domain" style="text;html=1;resizable=0;points=[];autosize=1;align=right;verticalAlign=bottom;spacingTop=-4;fontColor=#F8F8F2;fontSize=13;" parent="1" vertex="1"><mxGeometry x="-261.5" y="50" width="55" height="16" as="geometry"/></mxCell><mxCell id="211" value="Funcionario" style="swimlane;fontStyle=1;align=center;verticalAlign=top;childLayout=stackLayout;horizontal=1;startSize=26;horizontalStack=0;resizeParent=1;resizeParentMax=0;resizeLast=0;collapsible=1;marginBottom=0;strokeColor=#FF79C6;fillColor=#FF79C6;" parent="1" vertex="1"><mxGeometry x="-229" y="74" width="164" height="143" as="geometry"/></mxCell><mxCell id="212" value="- id: Integer" style="text;strokeColor=none;fillColor=none;align=left;verticalAlign=top;spacingLeft=4;spacingRight=4;overflow=hidden;rotatable=0;points=[[0,0.5],[1,0.5]];portConstraint=eastwest;fontStyle=0;fontColor=#FFFFFF;" parent="211" vertex="1"><mxGeometry y="26" width="164" height="22" as="geometry"/></mxCell><mxCell id="216" value="- nome: String" style="text;strokeColor=none;fillColor=none;align=left;verticalAlign=top;spacingLeft=4;spacingRight=4;overflow=hidden;rotatable=0;points=[[0,0.5],[1,0.5]];portConstraint=eastwest;fontStyle=0;fontColor=#FFFFFF;" parent="211" vertex="1"><mxGeometry y="48" width="164" height="20" as="geometry"/></mxCell><mxCell id="217" value="- salario: Double" style="text;strokeColor=none;fillColor=none;align=left;verticalAlign=top;spacingLeft=4;spacingRight=4;overflow=hidden;rotatable=0;points=[[0,0.5],[1,0.5]];portConstraint=eastwest;fontColor=#FFFFFF;" parent="211" vertex="1"><mxGeometry y="68" width="164" height="21" as="geometry"/></mxCell><mxCell id="218" value="- cargo: Cargo" style="text;strokeColor=none;fillColor=none;align=left;verticalAlign=top;spacingLeft=4;spacingRight=4;overflow=hidden;rotatable=0;points=[[0,0.5],[1,0.5]];portConstraint=eastwest;fontColor=#FFFFFF;" parent="211" vertex="1"><mxGeometry y="89" width="164" height="21" as="geometry"/></mxCell><mxCell id="213" value="" style="line;strokeWidth=1;fillColor=none;align=left;verticalAlign=middle;spacingTop=-1;spacingLeft=3;spacingRight=3;rotatable=0;labelPosition=right;points=[];portConstraint=eastwest;strokeColor=#FFFFFF;" parent="211" vertex="1"><mxGeometry y="110" width="164" height="10" as="geometry"/></mxCell><mxCell id="219" value="+ calculaSalario(): Double" style="text;strokeColor=none;fillColor=none;align=left;verticalAlign=top;spacingLeft=4;spacingRight=4;overflow=hidden;rotatable=0;points=[[0,0.5],[1,0.5]];portConstraint=eastwest;fontColor=#FFFFFF;" parent="211" vertex="1"><mxGeometry y="120" width="164" height="23" as="geometry"/></mxCell><mxCell id="227" value="&lt;p style=&quot;margin: 0px ; margin-top: 4px ; text-align: center ; text-decoration: underline&quot;&gt;&lt;b&gt;Cargo:Enum&lt;/b&gt;&lt;/p&gt;&lt;hr&gt;&lt;p style=&quot;margin: 0px ; margin-left: 8px&quot;&gt;DESENVOLVEDOR_SENIOR(new RegraVinteEDoisEMeioPorcento())&lt;br&gt;DESENVOLVEDOR_JUNIOR(new RegraOnzePorcento())&lt;br&gt;&lt;br&gt;&lt;/p&gt;" style="verticalAlign=top;align=left;overflow=fill;fontSize=12;fontFamily=Helvetica;html=1;strokeColor=#BD93F9;fillColor=#BD93F9;" parent="1" vertex="1"><mxGeometry x="1" y="86" width="395" height="93" as="geometry"/></mxCell><mxCell id="228" value="- regra: RegraCalculo" style="text;strokeColor=none;fillColor=none;align=left;verticalAlign=top;spacingLeft=4;spacingRight=4;overflow=hidden;rotatable=0;points=[[0,0.5],[1,0.5]];portConstraint=eastwest;fontColor=#000000;" parent="1" vertex="1"><mxGeometry x="6" y="145.5" width="164" height="21" as="geometry"/></mxCell><mxCell id="229" value="&lt;p style=&quot;margin: 0px ; margin-top: 4px ; text-align: center&quot;&gt;&lt;i&gt;&amp;lt;&amp;lt;Interface&amp;gt;&amp;gt;&lt;/i&gt;&lt;br&gt;&lt;b&gt;RegraCalculo&lt;/b&gt;&lt;/p&gt;&lt;p style=&quot;margin: 0px ; margin-left: 4px&quot;&gt;&lt;/p&gt;&lt;p style=&quot;margin: 0px ; margin-left: 4px&quot;&gt;+ calcula(Funcionario): Double&lt;br&gt;&lt;br&gt;&lt;/p&gt;" style="verticalAlign=top;align=left;overflow=fill;fontSize=12;fontFamily=Helvetica;html=1;strokeColor=#BD93F9;fillColor=#BD93F9;" parent="1" vertex="1"><mxGeometry x="3.5" y="237" width="190" height="60" as="geometry"/></mxCell><mxCell id="234" style="edgeStyle=orthogonalEdgeStyle;rounded=0;orthogonalLoop=1;jettySize=auto;html=1;entryX=1;entryY=0.5;entryDx=0;entryDy=0;strokeColor=#FF79C6;strokeWidth=3;" parent="1" target="216" edge="1"><mxGeometry relative="1" as="geometry"><mxPoint x="1" y="132" as="sourcePoint"/><mxPoint x="19" y="47" as="targetPoint"/><Array as="points"/></mxGeometry></mxCell><mxCell id="235" value="&lt;p style=&quot;margin: 0px ; margin-top: 4px ; text-align: center&quot;&gt;&lt;span style=&quot;text-align: left&quot;&gt;&lt;b&gt;RegraVinteEDoisEMeioPorcento&lt;/b&gt;&lt;/span&gt;&lt;br&gt;&lt;/p&gt;&lt;hr size=&quot;1&quot;&gt;&lt;p style=&quot;margin: 0px ; margin-left: 4px&quot;&gt;+ calcula(Funcionario): Double&lt;/p&gt;" style="verticalAlign=top;align=left;overflow=fill;fontSize=12;fontFamily=Helvetica;html=1;fillColor=#8BE9FD;" parent="1" vertex="1"><mxGeometry x="-147" y="347" width="217" height="68" as="geometry"/></mxCell><mxCell id="236" value="&lt;p style=&quot;margin: 0px ; margin-top: 4px ; text-align: center&quot;&gt;&lt;span style=&quot;text-align: left&quot;&gt;&lt;b&gt;RegraOnzePorcento&lt;/b&gt;&lt;/span&gt;&lt;br&gt;&lt;/p&gt;&lt;hr size=&quot;1&quot;&gt;&lt;p style=&quot;margin: 0px ; margin-left: 4px&quot;&gt;+ calcula(Funcionario): Double&lt;/p&gt;" style="verticalAlign=top;align=left;overflow=fill;fontSize=12;fontFamily=Helvetica;html=1;fillColor=#8BE9FD;" parent="1" vertex="1"><mxGeometry x="98.5" y="347" width="217" height="68" as="geometry"/></mxCell><mxCell id="237" value="Use" style="endArrow=open;endSize=12;dashed=1;html=1;exitX=0.5;exitY=0;exitDx=0;exitDy=0;entryX=0.25;entryY=1;entryDx=0;entryDy=0;strokeColor=#BD93F9;" parent="1" source="229" target="227" edge="1"><mxGeometry width="160" relative="1" as="geometry"><mxPoint x="-395" y="557" as="sourcePoint"/><mxPoint x="-235" y="557" as="targetPoint"/></mxGeometry></mxCell><mxCell id="238" value="" style="endArrow=block;dashed=1;endFill=0;endSize=12;html=1;strokeColor=#8BE9FD;exitX=0.5;exitY=1;exitDx=0;exitDy=0;entryX=0.5;entryY=0;entryDx=0;entryDy=0;" parent="1" source="229" target="235" edge="1"><mxGeometry width="160" relative="1" as="geometry"><mxPoint x="-395" y="557" as="sourcePoint"/><mxPoint x="-235" y="557" as="targetPoint"/></mxGeometry></mxCell><mxCell id="239" value="" style="endArrow=block;dashed=1;endFill=0;endSize=12;html=1;strokeColor=#8BE9FD;exitX=0.5;exitY=1;exitDx=0;exitDy=0;entryX=0.472;entryY=-0.044;entryDx=0;entryDy=0;entryPerimeter=0;" parent="1" source="229" target="236" edge="1"><mxGeometry width="160" relative="1" as="geometry"><mxPoint x="-395" y="513" as="sourcePoint"/><mxPoint x="-235" y="513" as="targetPoint"/></mxGeometry></mxCell><mxCell id="240" value="" style="rounded=0;whiteSpace=wrap;html=1;strokeColor=#50FA7B;strokeWidth=3;fillColor=#2E303D;fontColor=#F8F8F2;" parent="1" vertex="1"><mxGeometry x="-760" y="66" width="481" height="425" as="geometry"/></mxCell><mxCell id="241" value="Infra/Repositories" style="text;html=1;resizable=0;points=[];autosize=1;align=right;verticalAlign=bottom;spacingTop=-4;fontColor=#F8F8F2;fontSize=13;" parent="1" vertex="1"><mxGeometry x="-765" y="50" width="112" height="16" as="geometry"/></mxCell><mxCell id="242" value="ConnectionDAO" style="swimlane;fontStyle=1;align=center;verticalAlign=top;childLayout=stackLayout;horizontal=1;startSize=26;horizontalStack=0;resizeParent=1;resizeParentMax=0;resizeLast=0;collapsible=1;marginBottom=0;strokeColor=#FF79C6;fillColor=#FF79C6;" parent="1" vertex="1"><mxGeometry x="-747" y="86" width="238" height="203" as="geometry"/></mxCell><mxCell id="243" value="- conn: Connection" style="text;strokeColor=none;fillColor=none;align=left;verticalAlign=top;spacingLeft=4;spacingRight=4;overflow=hidden;rotatable=0;points=[[0,0.5],[1,0.5]];portConstraint=eastwest;fontStyle=0;fontColor=#FFFFFF;" parent="242" vertex="1"><mxGeometry y="26" width="238" height="22" as="geometry"/></mxCell><mxCell id="244" value="- dbms: String" style="text;strokeColor=none;fillColor=none;align=left;verticalAlign=top;spacingLeft=4;spacingRight=4;overflow=hidden;rotatable=0;points=[[0,0.5],[1,0.5]];portConstraint=eastwest;fontStyle=0;fontColor=#FFFFFF;" parent="242" vertex="1"><mxGeometry y="48" width="238" height="20" as="geometry"/></mxCell><mxCell id="245" value="- dbName: String" style="text;strokeColor=none;fillColor=none;align=left;verticalAlign=top;spacingLeft=4;spacingRight=4;overflow=hidden;rotatable=0;points=[[0,0.5],[1,0.5]];portConstraint=eastwest;fontColor=#FFFFFF;" parent="242" vertex="1"><mxGeometry y="68" width="238" height="21" as="geometry"/></mxCell><mxCell id="246" value="- serverName: String" style="text;strokeColor=none;fillColor=none;align=left;verticalAlign=top;spacingLeft=4;spacingRight=4;overflow=hidden;rotatable=0;points=[[0,0.5],[1,0.5]];portConstraint=eastwest;fontColor=#FFFFFF;" parent="242" vertex="1"><mxGeometry y="89" width="238" height="25" as="geometry"/></mxCell><mxCell id="249" value="- portNumber: String" style="text;strokeColor=none;fillColor=none;align=left;verticalAlign=top;spacingLeft=4;spacingRight=4;overflow=hidden;rotatable=0;points=[[0,0.5],[1,0.5]];portConstraint=eastwest;fontColor=#FFFFFF;" parent="242" vertex="1"><mxGeometry y="114" width="238" height="15" as="geometry"/></mxCell><mxCell id="247" value="" style="line;strokeWidth=1;fillColor=none;align=left;verticalAlign=middle;spacingTop=-1;spacingLeft=3;spacingRight=3;rotatable=0;labelPosition=right;points=[];portConstraint=eastwest;strokeColor=#FFFFFF;" parent="242" vertex="1"><mxGeometry y="129" width="238" height="10" as="geometry"/></mxCell><mxCell id="248" value="+ ConnectionDAO(String:user,String: pass)" style="text;strokeColor=none;fillColor=none;align=left;verticalAlign=top;spacingLeft=4;spacingRight=4;overflow=hidden;rotatable=0;points=[[0,0.5],[1,0.5]];portConstraint=eastwest;fontColor=#FFFFFF;" parent="242" vertex="1"><mxGeometry y="139" width="238" height="36" as="geometry"/></mxCell><mxCell id="250" value="+ createConnection(): Connection" style="text;strokeColor=none;fillColor=none;align=left;verticalAlign=top;spacingLeft=4;spacingRight=4;overflow=hidden;rotatable=0;points=[[0,0.5],[1,0.5]];portConstraint=eastwest;fontColor=#FFFFFF;" parent="242" vertex="1"><mxGeometry y="175" width="238" height="28" as="geometry"/></mxCell><mxCell id="251" value="MySQL" style="rounded=1;whiteSpace=wrap;html=1;strokeColor=#FF5555;fillColor=#2E303D;strokeWidth=3;fontColor=#F8F8F2;arcSize=21;" parent="1" vertex="1"><mxGeometry x="-605.5" y="-18" width="74" height="60" as="geometry"/></mxCell><mxCell id="252" style="edgeStyle=orthogonalEdgeStyle;rounded=0;orthogonalLoop=1;jettySize=auto;html=1;exitX=0.75;exitY=0;exitDx=0;exitDy=0;entryX=0.5;entryY=1;entryDx=0;entryDy=0;strokeColor=#FF79C6;strokeWidth=3;" parent="1" source="242" target="251" edge="1"><mxGeometry relative="1" as="geometry"><mxPoint x="13" y="94" as="sourcePoint"/><mxPoint x="13" y="47" as="targetPoint"/><Array as="points"><mxPoint x="-568" y="43"/></Array></mxGeometry></mxCell><mxCell id="253" value="FuncionarioDAO" style="swimlane;fontStyle=1;align=center;verticalAlign=top;childLayout=stackLayout;horizontal=1;startSize=26;horizontalStack=0;resizeParent=1;resizeParentMax=0;resizeLast=0;collapsible=1;marginBottom=0;strokeColor=#FF79C6;fillColor=#FF79C6;" parent="1" vertex="1"><mxGeometry x="-466.5" y="84.5" width="169" height="61" as="geometry"/></mxCell><mxCell id="258" value="" style="line;strokeWidth=1;fillColor=none;align=left;verticalAlign=middle;spacingTop=-1;spacingLeft=3;spacingRight=3;rotatable=0;labelPosition=right;points=[];portConstraint=eastwest;strokeColor=#FFFFFF;" parent="253" vertex="1"><mxGeometry y="26" width="169" height="10" as="geometry"/></mxCell><mxCell id="259" value="+ salva (Funcionario): Double" style="text;strokeColor=none;fillColor=none;align=left;verticalAlign=top;spacingLeft=4;spacingRight=4;overflow=hidden;rotatable=0;points=[[0,0.5],[1,0.5]];portConstraint=eastwest;fontColor=#FFFFFF;" parent="253" vertex="1"><mxGeometry y="36" width="169" height="25" as="geometry"/></mxCell><mxCell id="262" style="edgeStyle=orthogonalEdgeStyle;rounded=0;orthogonalLoop=1;jettySize=auto;html=1;strokeColor=#FF79C6;strokeWidth=3;entryX=1;entryY=0.5;entryDx=0;entryDy=0;" parent="1" target="259" edge="1"><mxGeometry relative="1" as="geometry"><mxPoint x="-229" y="133" as="sourcePoint"/><mxPoint x="-55" y="142" as="targetPoint"/><Array as="points"/></mxGeometry></mxCell><mxCell id="264" style="edgeStyle=orthogonalEdgeStyle;rounded=0;orthogonalLoop=1;jettySize=auto;html=1;exitX=1;exitY=0.5;exitDx=0;exitDy=0;entryX=-0.015;entryY=-0.14;entryDx=0;entryDy=0;strokeColor=#FF79C6;strokeWidth=3;entryPerimeter=0;" parent="1" source="245" target="259" edge="1"><mxGeometry relative="1" as="geometry"><mxPoint x="-558" y="96" as="sourcePoint"/><mxPoint x="-558" y="52" as="targetPoint"/><Array as="points"><mxPoint x="-509" y="117"/></Array></mxGeometry></mxCell></root></mxGraphModel></diagram></mxfile>